<mxfile host="65bd71144e">
    <diagram id="WxD6eWveRlDsFKDjyH18" name="ページ1">
        <mxGraphModel dx="884" dy="681" grid="0" gridSize="10" guides="1" tooltips="1" connect="1" arrows="1" fold="1" page="1" pageScale="1" pageWidth="827" pageHeight="1169" background="#ffffff" math="0" shadow="0">
            <root>
                <mxCell id="0"/>
                <mxCell id="1" parent="0"/>
                <mxCell id="26" value="&lt;b&gt;HTTPS&lt;/b&gt;" style="edgeStyle=none;html=1;fontColor=#000000;strokeColor=#000000;entryX=0.5;entryY=0;entryDx=0;entryDy=0;entryPerimeter=0;labelBackgroundColor=#FFFFFF;" parent="1" source="18" target="19" edge="1">
                    <mxGeometry x="-0.0323" relative="1" as="geometry">
                        <mxPoint as="offset"/>
                    </mxGeometry>
                </mxCell>
                <mxCell id="18" value="User" style="sketch=0;outlineConnect=0;fontColor=#232F3E;gradientColor=none;strokeColor=#232F3E;fillColor=#ffffff;dashed=0;verticalLabelPosition=bottom;verticalAlign=top;align=center;html=1;fontSize=12;fontStyle=0;aspect=fixed;shape=mxgraph.aws4.resourceIcon;resIcon=mxgraph.aws4.user;labelBackgroundColor=#FFFFFF;" parent="1" vertex="1">
                    <mxGeometry x="105" y="7" width="60" height="60" as="geometry"/>
                </mxCell>
                <mxCell id="29" value="" style="edgeStyle=none;html=1;labelBackgroundColor=#FFFFFF;fontColor=#000000;strokeColor=#000000;entryX=0.5;entryY=0;entryDx=0;entryDy=0;entryPerimeter=0;" parent="1" source="19" target="27" edge="1">
                    <mxGeometry relative="1" as="geometry">
                        <mxPoint x="135" y="358" as="targetPoint"/>
                    </mxGeometry>
                </mxCell>
                <mxCell id="177" value="&lt;font&gt;www.shop-app.site&lt;/font&gt;" style="edgeLabel;html=1;align=center;verticalAlign=middle;resizable=0;points=[];fontColor=#000000;labelBackgroundColor=#FFFFFF;fontStyle=1" vertex="1" connectable="0" parent="29">
                    <mxGeometry x="-0.0233" y="1" relative="1" as="geometry">
                        <mxPoint as="offset"/>
                    </mxGeometry>
                </mxCell>
                <mxCell id="54" value="api.shop-app.site" style="edgeStyle=none;html=1;labelBackgroundColor=#FFFFFF;fontColor=#000000;strokeColor=#000000;fontStyle=1" parent="1" source="19" target="50" edge="1">
                    <mxGeometry relative="1" as="geometry">
                        <Array as="points"/>
                    </mxGeometry>
                </mxCell>
                <mxCell id="19" value="" style="sketch=0;points=[[0,0,0],[0.25,0,0],[0.5,0,0],[0.75,0,0],[1,0,0],[0,1,0],[0.25,1,0],[0.5,1,0],[0.75,1,0],[1,1,0],[0,0.25,0],[0,0.5,0],[0,0.75,0],[1,0.25,0],[1,0.5,0],[1,0.75,0]];outlineConnect=0;fontColor=#232F3E;gradientColor=#945DF2;gradientDirection=north;fillColor=#5A30B5;strokeColor=#ffffff;dashed=0;verticalLabelPosition=bottom;verticalAlign=top;align=center;html=1;fontSize=12;fontStyle=0;aspect=fixed;shape=mxgraph.aws4.resourceIcon;resIcon=mxgraph.aws4.route_53;labelBackgroundColor=#FFFFFF;" parent="1" vertex="1">
                    <mxGeometry x="96" y="217" width="78" height="78" as="geometry"/>
                </mxCell>
                <mxCell id="32" style="edgeStyle=none;html=1;exitX=0;exitY=0.5;exitDx=0;exitDy=0;exitPerimeter=0;labelBackgroundColor=#FFFFFF;fontColor=#000000;strokeColor=#000000;dashed=1;" parent="1" source="20" target="19" edge="1">
                    <mxGeometry relative="1" as="geometry"/>
                </mxCell>
                <mxCell id="38" style="edgeStyle=none;html=1;entryX=0.208;entryY=-0.007;entryDx=0;entryDy=0;entryPerimeter=0;labelBackgroundColor=#FFFFFF;fontColor=#000000;strokeColor=#000000;" parent="1" source="27" target="37" edge="1">
                    <mxGeometry relative="1" as="geometry"/>
                </mxCell>
                <mxCell id="27" value="" style="sketch=0;points=[[0,0,0],[0.25,0,0],[0.5,0,0],[0.75,0,0],[1,0,0],[0,1,0],[0.25,1,0],[0.5,1,0],[0.75,1,0],[1,1,0],[0,0.25,0],[0,0.5,0],[0,0.75,0],[1,0.25,0],[1,0.5,0],[1,0.75,0]];outlineConnect=0;fontColor=#232F3E;gradientColor=#945DF2;gradientDirection=north;fillColor=#5A30B5;strokeColor=#ffffff;dashed=0;verticalLabelPosition=bottom;verticalAlign=top;align=center;html=1;fontSize=12;fontStyle=0;aspect=fixed;shape=mxgraph.aws4.resourceIcon;resIcon=mxgraph.aws4.cloudfront;labelBackgroundColor=#FFFFFF;" parent="1" vertex="1">
                    <mxGeometry x="96" y="394" width="78" height="78" as="geometry"/>
                </mxCell>
                <mxCell id="37" value="" style="rounded=0;whiteSpace=wrap;html=1;labelBackgroundColor=#FFFFFF;fontColor=#000000;fillColor=#FFFFFF;strokeColor=#666666;dashed=1;" parent="1" vertex="1">
                    <mxGeometry x="70" y="574" width="315" height="161" as="geometry"/>
                </mxCell>
                <mxCell id="42" style="edgeStyle=none;html=1;labelBackgroundColor=#FFFFFF;fontColor=#000000;strokeColor=#000000;dashed=1;" parent="1" source="35" target="41" edge="1">
                    <mxGeometry relative="1" as="geometry"/>
                </mxCell>
                <mxCell id="35" value="" style="sketch=0;points=[[0,0,0],[0.25,0,0],[0.5,0,0],[0.75,0,0],[1,0,0],[0,1,0],[0.25,1,0],[0.5,1,0],[0.75,1,0],[1,1,0],[0,0.25,0],[0,0.5,0],[0,0.75,0],[1,0.25,0],[1,0.5,0],[1,0.75,0]];outlineConnect=0;fontColor=#232F3E;gradientColor=#60A337;gradientDirection=north;fillColor=#277116;strokeColor=#ffffff;dashed=0;verticalLabelPosition=bottom;verticalAlign=top;align=center;html=1;fontSize=12;fontStyle=0;aspect=fixed;shape=mxgraph.aws4.resourceIcon;resIcon=mxgraph.aws4.s3;labelBackgroundColor=#FFFFFF;" parent="1" vertex="1">
                    <mxGeometry x="96" y="610" width="78" height="78" as="geometry"/>
                </mxCell>
                <mxCell id="41" value="" style="sketch=0;outlineConnect=0;fontColor=#232F3E;gradientColor=none;fillColor=#3F8624;strokeColor=none;dashed=0;verticalLabelPosition=bottom;verticalAlign=top;align=center;html=1;fontSize=12;fontStyle=0;aspect=fixed;pointerEvents=1;shape=mxgraph.aws4.bucket_with_objects;labelBackgroundColor=#FFFFFF;" parent="1" vertex="1">
                    <mxGeometry x="278" y="613.6899999999999" width="67.9" height="70.62" as="geometry"/>
                </mxCell>
                <mxCell id="43" value="AWS Cloud" style="points=[[0,0],[0.25,0],[0.5,0],[0.75,0],[1,0],[1,0.25],[1,0.5],[1,0.75],[1,1],[0.75,1],[0.5,1],[0.25,1],[0,1],[0,0.75],[0,0.5],[0,0.25]];outlineConnect=0;gradientColor=none;html=1;whiteSpace=wrap;fontSize=12;fontStyle=0;container=1;pointerEvents=0;collapsible=0;recursiveResize=0;shape=mxgraph.aws4.group;grIcon=mxgraph.aws4.group_aws_cloud_alt;strokeColor=#232F3E;fillColor=none;verticalAlign=top;align=left;spacingLeft=30;fontColor=#232F3E;dashed=0;labelBackgroundColor=#FFFFFF;" parent="1" vertex="1">
                    <mxGeometry x="7" y="175" width="1591" height="660" as="geometry"/>
                </mxCell>
                <mxCell id="44" value="VPC" style="points=[[0,0],[0.25,0],[0.5,0],[0.75,0],[1,0],[1,0.25],[1,0.5],[1,0.75],[1,1],[0.75,1],[0.5,1],[0.25,1],[0,1],[0,0.75],[0,0.5],[0,0.25]];outlineConnect=0;gradientColor=none;html=1;whiteSpace=wrap;fontSize=12;fontStyle=0;container=1;pointerEvents=0;collapsible=0;recursiveResize=0;shape=mxgraph.aws4.group;grIcon=mxgraph.aws4.group_vpc;strokeColor=#248814;fillColor=none;verticalAlign=top;align=left;spacingLeft=30;fontColor=#AAB7B8;dashed=0;labelBackgroundColor=#FFFFFF;" parent="43" vertex="1">
                    <mxGeometry x="527" y="41" width="820" height="577" as="geometry"/>
                </mxCell>
                <mxCell id="46" value="Public subnet" style="points=[[0,0],[0.25,0],[0.5,0],[0.75,0],[1,0],[1,0.25],[1,0.5],[1,0.75],[1,1],[0.75,1],[0.5,1],[0.25,1],[0,1],[0,0.75],[0,0.5],[0,0.25]];outlineConnect=0;gradientColor=none;html=1;whiteSpace=wrap;fontSize=12;fontStyle=0;container=1;pointerEvents=0;collapsible=0;recursiveResize=0;shape=mxgraph.aws4.group;grIcon=mxgraph.aws4.group_security_group;grStroke=0;strokeColor=#248814;fillColor=#E9F3E6;verticalAlign=top;align=left;spacingLeft=30;fontColor=#248814;dashed=0;labelBackgroundColor=#FFFFFF;" parent="44" vertex="1">
                    <mxGeometry x="257" y="33" width="511" height="346" as="geometry"/>
                </mxCell>
                <mxCell id="48" value="Private subnet" style="points=[[0,0],[0.25,0],[0.5,0],[0.75,0],[1,0],[1,0.25],[1,0.5],[1,0.75],[1,1],[0.75,1],[0.5,1],[0.25,1],[0,1],[0,0.75],[0,0.5],[0,0.25]];outlineConnect=0;gradientColor=none;html=1;whiteSpace=wrap;fontSize=12;fontStyle=0;container=1;pointerEvents=0;collapsible=0;recursiveResize=0;shape=mxgraph.aws4.group;grIcon=mxgraph.aws4.group_security_group;grStroke=0;strokeColor=#147EBA;fillColor=#E6F2F8;verticalAlign=top;align=left;spacingLeft=30;fontColor=#147EBA;dashed=0;labelBackgroundColor=#FFFFFF;" parent="44" vertex="1">
                    <mxGeometry x="258" y="352" width="510" height="203" as="geometry"/>
                </mxCell>
                <mxCell id="64" value="" style="sketch=0;points=[[0,0,0],[0.25,0,0],[0.5,0,0],[0.75,0,0],[1,0,0],[0,1,0],[0.25,1,0],[0.5,1,0],[0.75,1,0],[1,1,0],[0,0.25,0],[0,0.5,0],[0,0.75,0],[1,0.25,0],[1,0.5,0],[1,0.75,0]];outlineConnect=0;fontColor=#232F3E;gradientColor=#4D72F3;gradientDirection=north;fillColor=#3334B9;strokeColor=#ffffff;dashed=0;verticalLabelPosition=bottom;verticalAlign=top;align=center;html=1;fontSize=12;fontStyle=0;aspect=fixed;shape=mxgraph.aws4.resourceIcon;resIcon=mxgraph.aws4.rds;labelBackgroundColor=#FFFFFF;" parent="48" vertex="1">
                    <mxGeometry x="219" y="62.5" width="78" height="78" as="geometry"/>
                </mxCell>
                <mxCell id="110" value="RDB&lt;br&gt;(MySQL)" style="text;html=1;resizable=0;autosize=1;align=center;verticalAlign=middle;points=[];fillColor=none;strokeColor=none;rounded=0;dashed=1;labelBackgroundColor=none;fontColor=#3333FF;fontStyle=1" parent="48" vertex="1">
                    <mxGeometry x="228" y="147" width="60" height="32" as="geometry"/>
                </mxCell>
                <mxCell id="55" value="" style="edgeStyle=none;html=1;labelBackgroundColor=#FFFFFF;fontColor=#000000;strokeColor=#000000;" parent="44" source="50" target="49" edge="1">
                    <mxGeometry relative="1" as="geometry"/>
                </mxCell>
                <mxCell id="50" value="" style="outlineConnect=0;dashed=0;verticalLabelPosition=bottom;verticalAlign=top;align=center;html=1;shape=mxgraph.aws3.internet_gateway;fillColor=#F58534;gradientColor=none;labelBackgroundColor=#FFFFFF;fontColor=#000000;strokeColor=#666666;" parent="44" vertex="1">
                    <mxGeometry x="-35" y="115" width="69" height="72" as="geometry"/>
                </mxCell>
                <mxCell id="49" value="" style="outlineConnect=0;dashed=0;verticalLabelPosition=bottom;verticalAlign=top;align=center;html=1;shape=mxgraph.aws3.application_load_balancer;fillColor=#F58534;gradientColor=none;labelBackgroundColor=#FFFFFF;fontColor=#000000;strokeColor=#666666;" parent="44" vertex="1">
                    <mxGeometry x="111" y="115" width="69" height="72" as="geometry"/>
                </mxCell>
                <mxCell id="73" value="" style="outlineConnect=0;dashed=0;verticalLabelPosition=bottom;verticalAlign=top;align=center;html=1;shape=mxgraph.aws3.ecr;fillColor=#F58534;gradientColor=none;labelBackgroundColor=#FFFFFF;fontColor=#000000;strokeColor=#666666;" parent="44" vertex="1">
                    <mxGeometry x="72" y="328" width="69" height="72" as="geometry"/>
                </mxCell>
                <mxCell id="96" value="Internet GateWay" style="text;html=1;resizable=0;autosize=1;align=center;verticalAlign=middle;points=[];fillColor=none;strokeColor=none;rounded=0;dashed=1;labelBackgroundColor=#FFFFFF;fontColor=#CC6600;fontStyle=1" parent="44" vertex="1">
                    <mxGeometry x="-59" y="192" width="108" height="18" as="geometry"/>
                </mxCell>
                <mxCell id="99" value="ALB" style="text;html=1;resizable=0;autosize=1;align=center;verticalAlign=middle;points=[];fillColor=none;strokeColor=none;rounded=0;dashed=1;labelBackgroundColor=#FFFFFF;fontColor=#CC6600;fontStyle=1" parent="44" vertex="1">
                    <mxGeometry x="128" y="192" width="35" height="18" as="geometry"/>
                </mxCell>
                <mxCell id="100" value="ECS(Fargate)" style="text;html=1;resizable=0;autosize=1;align=center;verticalAlign=middle;points=[];fillColor=none;strokeColor=none;rounded=0;dashed=1;labelBackgroundColor=none;fontColor=#CC6600;fontStyle=1" parent="44" vertex="1">
                    <mxGeometry x="309" y="79" width="86" height="18" as="geometry"/>
                </mxCell>
                <mxCell id="109" value="ECR" style="text;html=1;resizable=0;autosize=1;align=center;verticalAlign=middle;points=[];fillColor=none;strokeColor=none;rounded=0;dashed=1;labelBackgroundColor=#FFFFFF;fontColor=#CC6600;fontStyle=1" parent="44" vertex="1">
                    <mxGeometry x="88.5" y="407" width="36" height="18" as="geometry"/>
                </mxCell>
                <mxCell id="175" value="Rails / Puma" style="text;html=1;resizable=0;autosize=1;align=center;verticalAlign=middle;points=[];fillColor=none;strokeColor=none;rounded=0;dashed=1;labelBackgroundColor=none;fontColor=#CC0000;fontStyle=1" parent="44" vertex="1">
                    <mxGeometry x="420" y="200" width="81" height="18" as="geometry"/>
                </mxCell>
                <mxCell id="176" value="Nginx" style="text;html=1;resizable=0;autosize=1;align=center;verticalAlign=middle;points=[];fillColor=none;strokeColor=none;rounded=0;dashed=1;labelBackgroundColor=none;fontColor=#00994D;fontStyle=1" parent="44" vertex="1">
                    <mxGeometry x="559" y="197" width="44" height="18" as="geometry"/>
                </mxCell>
                <mxCell id="79" value="" style="sketch=0;points=[[0,0,0],[0.25,0,0],[0.5,0,0],[0.75,0,0],[1,0,0],[0,1,0],[0.25,1,0],[0.5,1,0],[0.75,1,0],[1,1,0],[0,0.25,0],[0,0.5,0],[0,0.75,0],[1,0.25,0],[1,0.5,0],[1,0.75,0]];points=[[0,0,0],[0.25,0,0],[0.5,0,0],[0.75,0,0],[1,0,0],[0,1,0],[0.25,1,0],[0.5,1,0],[0.75,1,0],[1,1,0],[0,0.25,0],[0,0.5,0],[0,0.75,0],[1,0.25,0],[1,0.5,0],[1,0.75,0]];outlineConnect=0;fontColor=#232F3E;gradientColor=#F34482;gradientDirection=north;fillColor=#BC1356;strokeColor=#ffffff;dashed=0;verticalLabelPosition=bottom;verticalAlign=top;align=center;html=1;fontSize=12;fontStyle=0;aspect=fixed;shape=mxgraph.aws4.resourceIcon;resIcon=mxgraph.aws4.cloudwatch_2;labelBackgroundColor=#FFFFFF;" parent="43" vertex="1">
                    <mxGeometry x="1499" y="8" width="78" height="78" as="geometry"/>
                </mxCell>
                <mxCell id="81" value="" style="rounded=0;whiteSpace=wrap;html=1;dashed=1;labelBackgroundColor=#FFFFFF;fontColor=#000000;strokeColor=#666666;fillColor=none;" parent="43" vertex="1">
                    <mxGeometry x="1398" y="235" width="167" height="236" as="geometry"/>
                </mxCell>
                <mxCell id="87" value="" style="sketch=0;points=[[0,0,0],[0.25,0,0],[0.5,0,0],[0.75,0,0],[1,0,0],[0,1,0],[0.25,1,0],[0.5,1,0],[0.75,1,0],[1,1,0],[0,0.25,0],[0,0.5,0],[0,0.75,0],[1,0.25,0],[1,0.5,0],[1,0.75,0]];outlineConnect=0;fontColor=#232F3E;gradientColor=#60A337;gradientDirection=north;fillColor=#277116;strokeColor=#ffffff;dashed=0;verticalLabelPosition=bottom;verticalAlign=top;align=center;html=1;fontSize=12;fontStyle=0;aspect=fixed;shape=mxgraph.aws4.resourceIcon;resIcon=mxgraph.aws4.s3;labelBackgroundColor=#FFFFFF;" parent="43" vertex="1">
                    <mxGeometry x="1416" y="270" width="78" height="78" as="geometry"/>
                </mxCell>
                <mxCell id="88" value="" style="sketch=0;outlineConnect=0;fontColor=#232F3E;gradientColor=none;fillColor=#D45B07;strokeColor=none;dashed=0;verticalLabelPosition=bottom;verticalAlign=top;align=center;html=1;fontSize=12;fontStyle=0;aspect=fixed;pointerEvents=1;shape=mxgraph.aws4.container_registry_image;labelBackgroundColor=#FFFFFF;" parent="43" vertex="1">
                    <mxGeometry x="1491" y="386" width="48" height="48" as="geometry"/>
                </mxCell>
                <mxCell id="90" value="Route53" style="text;html=1;resizable=0;autosize=1;align=center;verticalAlign=middle;points=[];fillColor=none;strokeColor=none;rounded=0;dashed=1;labelBackgroundColor=#FFFFFF;fontColor=#6600CC;fontStyle=1" parent="43" vertex="1">
                    <mxGeometry x="100" y="125" width="57" height="18" as="geometry"/>
                </mxCell>
                <mxCell id="93" value="CloudFront" style="text;html=1;resizable=0;autosize=1;align=center;verticalAlign=middle;points=[];fillColor=none;strokeColor=none;rounded=0;dashed=1;labelBackgroundColor=#FFFFFF;fontColor=#6600CC;fontStyle=1" parent="43" vertex="1">
                    <mxGeometry x="90.5" y="303" width="75" height="18" as="geometry"/>
                </mxCell>
                <mxCell id="94" value="SSL証明書" style="text;html=1;resizable=0;autosize=1;align=center;verticalAlign=middle;points=[];fillColor=none;strokeColor=none;rounded=0;dashed=1;labelBackgroundColor=#FFFFFF;fontColor=#336600;fontStyle=1" parent="43" vertex="1">
                    <mxGeometry x="204" y="261" width="69" height="18" as="geometry"/>
                </mxCell>
                <mxCell id="20" value="" style="sketch=0;points=[[0,0,0],[0.25,0,0],[0.5,0,0],[0.75,0,0],[1,0,0],[0,1,0],[0.25,1,0],[0.5,1,0],[0.75,1,0],[1,1,0],[0,0.25,0],[0,0.5,0],[0,0.75,0],[1,0.25,0],[1,0.5,0],[1,0.75,0]];outlineConnect=0;fontColor=#232F3E;gradientColor=#F54749;gradientDirection=north;fillColor=#C7131F;strokeColor=#ffffff;dashed=0;verticalLabelPosition=bottom;verticalAlign=top;align=center;html=1;fontSize=12;fontStyle=0;aspect=fixed;shape=mxgraph.aws4.resourceIcon;resIcon=mxgraph.aws4.certificate_manager_3;labelBackgroundColor=#FFFFFF;" parent="43" vertex="1">
                    <mxGeometry x="325" y="219" width="78" height="78" as="geometry"/>
                </mxCell>
                <mxCell id="102" value="AWS Certificate Manager" style="text;html=1;resizable=0;autosize=1;align=center;verticalAlign=middle;points=[];fillColor=none;strokeColor=none;rounded=0;dashed=1;labelBackgroundColor=#FFFFFF;fontColor=#CC0000;fontStyle=1" parent="43" vertex="1">
                    <mxGeometry x="288" y="303" width="152" height="18" as="geometry"/>
                </mxCell>
                <mxCell id="106" value="静的ウェブサイトホスティング" style="text;html=1;resizable=0;autosize=1;align=center;verticalAlign=middle;points=[];fillColor=none;strokeColor=none;rounded=0;dashed=1;labelBackgroundColor=#FFFFFF;fontColor=#006600;fontStyle=1" parent="43" vertex="1">
                    <mxGeometry x="64" y="401" width="178" height="18" as="geometry"/>
                </mxCell>
                <mxCell id="111" value="CloudWatch" style="text;html=1;resizable=0;autosize=1;align=center;verticalAlign=middle;points=[];fillColor=none;strokeColor=none;rounded=0;dashed=1;labelBackgroundColor=#FFFFFF;fontColor=#CC0066;fontStyle=1" parent="43" vertex="1">
                    <mxGeometry x="1498" y="92" width="80" height="18" as="geometry"/>
                </mxCell>
                <mxCell id="112" value="S3" style="text;html=1;resizable=0;autosize=1;align=center;verticalAlign=middle;points=[];fillColor=none;strokeColor=none;rounded=0;dashed=1;labelBackgroundColor=#FFFFFF;fontColor=#006600;fontStyle=1" parent="43" vertex="1">
                    <mxGeometry x="1443" y="355" width="25" height="18" as="geometry"/>
                </mxCell>
                <mxCell id="113" value="ImageFile" style="text;html=1;resizable=0;autosize=1;align=center;verticalAlign=middle;points=[];fillColor=none;strokeColor=none;rounded=0;dashed=1;labelBackgroundColor=#FFFFFF;fontColor=#CC6600;fontStyle=1" parent="43" vertex="1">
                    <mxGeometry x="1482.5" y="439" width="66" height="18" as="geometry"/>
                </mxCell>
                <mxCell id="114" value="S3" style="text;html=1;resizable=0;autosize=1;align=center;verticalAlign=middle;points=[];fillColor=none;strokeColor=none;rounded=0;dashed=1;labelBackgroundColor=#FFFFFF;fontColor=#006600;fontStyle=1" parent="43" vertex="1">
                    <mxGeometry x="115.5" y="519" width="25" height="18" as="geometry"/>
                </mxCell>
                <mxCell id="144" value="Bucket" style="text;html=1;resizable=0;autosize=1;align=center;verticalAlign=middle;points=[];fillColor=none;strokeColor=none;rounded=0;dashed=1;labelBackgroundColor=#FFFFFF;fontColor=#006600;fontStyle=1" parent="43" vertex="1">
                    <mxGeometry x="278" y="519" width="50" height="18" as="geometry"/>
                </mxCell>
                <mxCell id="15" value="" style="outlineConnect=0;dashed=0;verticalLabelPosition=bottom;verticalAlign=top;align=center;html=1;shape=mxgraph.aws3.certificate_manager_2;fillColor=#759C3E;gradientColor=none;labelBackgroundColor=#FFFFFF;fontColor=#000000;" parent="43" vertex="1">
                    <mxGeometry x="212" y="208" width="53" height="49" as="geometry"/>
                </mxCell>
                <mxCell id="56" value="" style="rounded=0;whiteSpace=wrap;html=1;dashed=1;labelBackgroundColor=#FFFFFF;fontColor=#000000;strokeColor=#666666;fillColor=none;" parent="1" vertex="1">
                    <mxGeometry x="817" y="290" width="460" height="223" as="geometry"/>
                </mxCell>
                <mxCell id="59" value="" style="outlineConnect=0;dashed=0;verticalLabelPosition=bottom;verticalAlign=top;align=center;html=1;shape=mxgraph.aws3.ecs;fillColor=#F58534;gradientColor=none;labelBackgroundColor=#FFFFFF;fontColor=#000000;strokeColor=#666666;" parent="1" vertex="1">
                    <mxGeometry x="817" y="290" width="27" height="28" as="geometry"/>
                </mxCell>
                <mxCell id="71" value="" style="edgeStyle=none;html=1;labelBackgroundColor=#FFFFFF;fontColor=#000000;strokeColor=#000000;entryX=0.5;entryY=0;entryDx=0;entryDy=0;entryPerimeter=0;" parent="1" source="60" target="64" edge="1">
                    <mxGeometry relative="1" as="geometry">
                        <mxPoint x="1048" y="551" as="targetPoint"/>
                    </mxGeometry>
                </mxCell>
                <mxCell id="60" value="" style="rounded=0;whiteSpace=wrap;html=1;dashed=1;labelBackgroundColor=#FFFFFF;fontColor=#000000;strokeColor=#666666;fillColor=none;" parent="1" vertex="1">
                    <mxGeometry x="877" y="323" width="346" height="148" as="geometry"/>
                </mxCell>
                <mxCell id="61" value="" style="sketch=0;aspect=fixed;html=1;points=[];align=center;image;fontSize=12;image=img/lib/mscae/Docker.svg;dashed=1;labelBackgroundColor=#FFFFFF;fontColor=#000000;strokeColor=#666666;fillColor=none;" parent="1" vertex="1">
                    <mxGeometry x="885" y="424" width="50" height="41" as="geometry"/>
                </mxCell>
                <mxCell id="62" value="" style="shape=image;verticalLabelPosition=bottom;labelBackgroundColor=#ffffff;verticalAlign=top;aspect=fixed;imageAspect=0;image=data:image/webp,UklGRuoXAABXRUJQVlA4TN0XAAAv/8A/ECZd07atjm03PoL5Pr0M///nagjG6J5ah/Ox6iufMWmDyj9glsxwxDLIjNq2zCyz/ZUMMoNMPWRm7CpjGFUZYTridJhB6RlmkqMwRymFZsmkcDJqK6AwJ62oKszpMJPZCjOuFRnDpKqeBwrjSPQPFCaFFAaFOgxHyRuFOelsS4wkSZGk018qnPCeOmbmfz1CAiRJpm393XOunm3btm3btm3bxrdt27Zt+/9nXswE8Jr/r/n/mv+v+f8akxG63UcKLGiIW/Dsbr9d2bFoQefEHfEOvguWSCUibqdJmLBn7wMwgHPAAjwAOsL57TQgiIIvxCJiItYYTSAxzlMlkYBu38wJorCEe8AZYAcAXAGKYj012BDJuSBuJ7RSQxJFonQRKDyRM3IRitwJlII5kSw6hoqRKm8f7uZMaWuLSISZuITOL3vDBAATdHABbbQgnZSiriwaq2nflATFpFqXLcbeOyTRJR4QEjJIESkheSEpCSDGXiSd55dHDjsKC7EETMU14BbEU0nx3g5WDNO7Ifnk0lqJKdmxnkCrTpJ3gC5EiyaxSZyRHkvfYErMovlP9KO+t5hC3+AJOg/boANlvLQkI4skyflllVNKPqs+WhbLiD0S5tyldUMOUQmaxA10xR3GP+qRBGUpQ9oufQQWLqGAO1htRr7vY8HY90ebSgmPUPJ/FDwT26Hku0p8JImolEyl94PSWGLDLKiwlc4NKUmj+9GFYErLESrgNmZLEuQgV7oAC91oNJZYuUV/MgGO4CBOGBqzBHY+A8sL42+iyJd+iH1SjlAjSeBBAWiXNFNYS+IcpnOkRJPubXI6UWlW0uGcW5LCWWxFU6XVeFGcWGvUaqIWcUwocULBXhTtRan0VtJ1qJZ0SVJSQg1wW/AzvZ9SGKv2O6uJCKVEJfdO8fuKa6PIL+ZDqzbUlBqrNpgsFuNKlBeXn/pzkXyXeppHiSD0RRcDadezc0qKGOnRqrJchFatVTdtqKFZL3RVQv/RRuQ8J7Pz9K7Kd5e+St+FH0mCF7q9GgjWzITWqAet2rC/8KMRui4lIC6y3krnuCMykqRISpro0KayXocaAkc9aq3aZaZR6aK3UIwEyek8jeOc5JUhRf0nwi0s80ZDq14OTRjmERPnED2KqAZBMpvG7UjJBh61x02j1qrXw0CDZWYU/fXvJHGR9XTtkvdxgkSbPzhtqDW6H02gwbI5isRbFE/2qunYEDAfUbrdDmcaGt23JtRJcdMV15EjuU2/duTPgvnVqVFjdR8bG+g6UxnBZiRD9tKsLWVD0tjKL2po1KNGg8DYzjKfz+cbE2NMqNaoqjUa9icRTIhcsp5WAUlJUrranjUArFEPWqOhmRRzHfUvapvBYLAZ+eNwcbzumECNtUZt5qKEriJDcpc+Tfkw4lv3ONDAquvWamgzC62VCgPzFvAHvUEP0Z0tuidePIWYyV2UCquRZhYNawNrtbNYAUvUkYJMk+ZHhJDc5lgDq64bG9hZ3y+V+tI7aY9okCKFJcgiHkSr33aC7+sE9yTKCwgJoSu8ULY0IJ2FHxqVLibFpVGrutBIuiXpcdhLh4akyNv4RQ2sum1CEzR11YVJOCxyhf6VaEzhfZ4iwStZSkViv/iziUb5jAkMgG2uTlEhWU9P5gkNSWjuCshrYNVlE+ik6UdGnJVShTRJti6nu5bDnN9OOAk9EJUYdBRC4Hd/6BuuoDRuLgPV5jgSR0GcQKQjO3Ieb05Kg1FnqaFVd22gjcxFhGakcWHI2B0T7fEB/dx/RM/hkNT6evyac5KIDwXDAbEY1TL9UJfFkvgJnuRR2nHET0rOneakWBPNArVGXbWBhkU/kv5/aiRPkvd1iiVnlMiE60S+F9avlSLJgkesbsskhSo0oc+lwawfaK6GM/jfZD3NOCdyQEuog9zFDEm0LloEGqi7xuq6UfreUreQIssU8lD5XTanSJzzBLKUYiqzvLQolmAaVNli7PSI/LhSunjUHWTWug4i6agkyPO04pzIAs3VumiEbJFzEq3BPSwCDdRVazXI1AZox0ORZ3NZ6AneojTIDF6D2QSmFKmbRS3CE5jnZtWBrE7JKxFSnHjYrS0mwWnpl0nGzKYRUwotaaJ2uI7EZrJKEg1Fi1CtumqNNhYl8UUKIOtVknCpjRZnf2aFtnKXACn4QEtYvC7ki1Xo+N9govMseSQl/r/oYhHkBn/mNbgHVdOFKv8NfBxk1DZL0jFB5ZSoOeqHGqqrodG+dsVeSYjlMskTirTuzeboBvr6DenBLPmUqPK1So1Z0R+IWvIoTaDslFslWFSrh91fhIWylPK6jVADddUGurjwRTF5ztgW3wEWVl3xAbWBAZNs7aaX9eTIOvmVpE21wWIdlqT1ZDZNoCgdjde6WKFbezApQjY60VBdDawuNmJGeHB+xPjiCrwVcYKbnq1eki/9XSLNZSJxVhYvT9IEiujxxVvVxI9PS94z4880VFeN0WLlr9+dl0z01YGb3Ja9QlbLnKLGSeX4ZnSXB+B5ejCl5CktDFQ4kE8u/awt1BhXglCLFfReKPCMSZ7Q23USGYvbUXi3rvRJ0uB5WsAzSuZ/WVRwL/Q1P3I3p9aomzbU5kB8lOR4wsQB0ftbUrRcbN5iIP0VRrxMC1gnkgUqKTa1j9UYdTVQxKpJfyQ1XtkQ93+dFI6/LLpb7aMiU07TAvaYpSgoIaaxVl01OvGbf49H/GsQye0+I7O8h9hVWo9PkS2P0gIKCsFKtaFGXTWhWVYglk9HsW7vDcSb78bqfuOU/EKdAvr474lwWlClLAF4v5mpUXetNiPRzxNCSxstRKKbu33HoyHBtY7ECJhp4Y4fKjpW65LRTOU/VEkRM+h0dAZWLO878ohkmWnhCaWUbjMIjbpqtDO+eXfOBQ2+bPr6j2+gzdwdANwdtZgWlvkOH/Wio1bdtdqMRCXPjyhVljKzDXwCJc4PgjRSnOkWNVR3rfZxCeLBvZ9hxkp3B6G0JEyJMB2r5V05pbvyMI06J2SXihoal0ywrElunJJTCuvx6rPzkh4sT1M2nE6TQ8R0eJDMT8qe6hEpSFN+R626a7VZQge4I8k6xXq0nzvG/bRg/knAOKWPByaS+o8gmU1JdUqSexu67RQn/BgkWS4ntLej23acsNPfTHhvIVd6RyS5t+HvncpUlSntKxXVqstBqIpM2IshheBvYdVpS6mzLRZnKe33T+HdFwe/E3KXXJYU4iIBrYRT6Ca6kzC6Lc6IMRErSZDTRKAbnsNNuBP3I72bCCUQOz4e3L0n3L6nM9yCx7DlyIUp+Q4oT9oiLqE7KUS30ONuarIUgbiEWWCMS8YWS9JOAqZjlazSeUrUhUdATE3xuBYNxDOUQtaTyVIISD3Sv1V7NUhy1V69/2e7f3LoNOTn33sBnMEg7mjvFVA+z3v8ypVB/FpBelZOWZVE2rDjLUpRZZDCTeEnpAQQ70CvN2u16rIN7Php2XNitcq4QPC/FX6sTaWxJuwU15vSewkDCpzYlH/vj7V9xDqd5ZNc5/J+dLc/QVYdWoR9lZuzuDdXIotnOwoHC6z4h7V7HqWqSqLyZjRuFvv5FDZrUnhKskQ1UVMDdft9m7gB6RRbTOGWqAuPcKopNqGx/cxqIUXzKJEtJcfi4FBi29BYTdiaMOgcj9v/98qO2IqpEg50m+psM6X34FmZ4DC2Vp3zA7hXTlGVFJva40MbqrWatOlsRHgq5pTkxbTfCK1bNuxXRDCzHlO1oSpi+hWRxnq8HpHqf6w11RpNoQm1cXpL2kbH/fMYFBsKpw21RlOZqizRKtxBRo26vqx9gXdhSl1SNVZnugEfbuOQ0qXusdpAU2qNmtM2yud0P2X5Q9sZo0ZTm6IdhUFHrVHXTbEtdXC7H9RaXY/QH5Bk1aFOlFAqamg01UaXGPjSv57D/dPib4dZv6NGvXRE2F9qqns20PFnZW9fqA30OJI2suzAKwv/6cFaQ019oKdt0cjs/jkijEaHatRLPQpbDNjAqvv5wdPPedTaF2oDow1hwB3JLIV7rWOsumjCxubO+9wJ7pshJRH0GwMdaz1VJTrWbapxzxbbn5JnZN2lQE2YqIZOajUXwRCzJOsUw+1cEMeoCZf9fH89axhrrIOaUPNIh/P9kqUUNpgFVl2rJlLm848m1qjr1gYYAHsSlQk9XrqjgY6ddaz9UK2TBpPR8wguxsoxujFYW3W0GubHm0HsRtcaWAe1k80n5Xa/1PkohZxVVQ2tLpspPB29bQyrgog3pDjRLap1zzRGf+y7EfGiGfFfWDDrSqBBM/6yYgI1TiawvrDjji2CEJr0Q+MQaBis/jF6Km6gG59UuvFJ7zSDCUDgZJptUcKT/dKitL9bDGJUba3UTX6FZ/jkMd+Y5LQasyOywUBgQ/VgMfphJPIYjxYiiq40auIVMkJ6yADp33nnnW/3dl8LrR4sA+ukphl9vHs7WHHCFkHt5tiqow0bNbRGyO5tRHVeHVavIED3/QZrdQ6P8QRSI8/2C4kuVvImJlyO0BO0Bx1GB5NGB9DxD8Mq/80vQ7uQ+znZK5NHhL2ljFoPmGYJ5ZJSS+GZ/QHUujIbwAMm+p7dvImjufa9uOOcSPt0HDrpYvX5maAk+6v9iZM5xCN8Sp7vn7evrNUh0355pnhKkVdYbb7h//ydZKtHydCoseoFNd+DlM6t1msMPLMkyGHq+hvxCIvCnuP8kv/mV/uBdTL51U8g2SJoH46tky22RQ4FNU6ZH2O1PmAW0f/n093HoBSSJLo7QIuTTSTmxVGw4znF6igTGA/Y5Qj9AF7+b/iHgc66Ip1nssnAI1kE4++Idpea6hzOKnCd5JxI+zSBZuk9OI1Dfqp4elBkIlTES6YWOY4aoc03w713ENnkS4kp31j1oJmt4DQpXMfLIFcQA6x75ZKi5taxddL+4OmvhGM+22ECxVKHZwlIpw8gVMJ3OYs9Pzs/ye4SkTZExdBoAwPik8RLftUoEwRe0MMC9JIQd2vSn3WlNF565YyQUyrGW6eiWXqPA+2wgNKYZH3oBGLiLwYaxtpi9FDcCwnGo9Ya6knT7P5ZnlDUV8b5sWTPI69c8rnbghk62X5FXOXVQZxd9U1MAOwNOgllqBHqY1/280n1ovJHC0tBJ7cOUlKlGGpo1YAh+barWWA8YYMxOHJKfkBxgKY/F+deqfO34wEO1TmYdeHIVWHOBy8V1bmzevgb8Qur8f97if9BtkhK9/deIVisbX6FLnBHONXNqDeD8TMjOc5Z59/70q/195lsMuKRLDIB3i8EDzez0EkX7Wdg7ypwSamhfRhYVQ2N5m+eOh7mDk9nWmv/aiggd6QIRQdgMdo0HqcLqeTP7qsJvCGxRz9AYpDkGZEGGv0gV2abewF17xTVnRGVKHTQCaxTkME9SOW8vAr0iFxHjdBokiY0JjCTnN+GXVgEqyRBFVVLT2u3xMS/IqE1ygTGG/2BuPnQMcySsiFX+gNxnwkKA/R7tFRnG5rRc7B3FSB/xBeoLa1JwtEaXR7fgkMkp1VSNvKl4YjUT36Cp6411Ju22X1JtmI4ZPKJGf8XinExKsYcv7RYBRObvFonE/jinxBhK5li6T14cuBMKZW2TzUwKVBr1R4X/hvLZCtL8qGxYUrem04QeMM022gVdw6pTEyN307QX2roZELBLH1aDpmEaZYgl0DbOp5vKZ05IOaUGOLVoKgmTIGqVWMxIFnRsT7klv8uKlr1Zpi7JVp46QmjZpFzXOQWHbWBOtl1BYJYT8Y2I0hiop+/ezAwS2Hnj9camFSo0WL32zmRLYKI+I2BhvGIOS2IUp54ItWh5gffZQ8mk1rWxHmpTQxIfc7QJ/U+z2hyMHDLFx1g4NhoYFOggdWG0I+T5TuuZoFn8l2Ryun+sRrMKpIfp0mpTiq3CgliINADgmWiUGm+tCw2Qhua0IShCQNj1caEphlJ1XF6FDtLgvm+6pXlQETuI6uhWCqINSwzKRvq7PTQOXd4PFFzUHBLofGTayUM6ESw8v18v5/v9/OhhjGq/ZU47lTly//Ci4b1StCpSYHM7hMT6iRXkC5e2UgOk3Nx/3FLglvvpceDVXe16nZXq1XXD9XRLDGAPjhliUIHjdB4xl78Eh7tB6PGNk7Hhb/46Ykwrybctcg3BhuIQil3+1MiBaV/hLdAqXdDyeh5belgzVjMOZUprYuKoXrHl1z3zQQD0bFoIHu8upDTMhNHJ1Z5Bw00cGL7j40axjM28MGZ5f2gZjyAv2LNI5I9XnXIanlbn9an9foUkSf3dYi+eTwN1GHHV/JDYz0TGv8rc8dt1XONkXgnvL4AWWf8g2Q2eMitS0mis/GMGocpoQH30LTqWRP6wo11kru6W0aDQIMETGDeg4iy44G0HnzTp7sSmu4SPdodDWPOzs8uTy5PYi8d65cn932Ivnk8q6ED+cirtXoJA49Kgh+qFRIkp3OXTEetiaeNcSSyWT+YZgO4Qy8/YTwNNWbO1/vVfmC9Yye1Fyel3L0PQP/QduT9Rci5G2rGtZlaG8doQ3EBIppnB5L1/xmsR2thHaxN+Fd+IfDlliABtR8S6l8W1f/vD4wVraL9SZ9UtD2p6HqUjyk60cfR0inU05gpIaA2sepdk8cliBjyHWta2rzgBz4Lhy5MatIr6XJJMNUYJzXaH/vIh5epMVaNNYFjaI1V6y21fpRsZe8/SO38EQQzPMDD37px48atRAuFwi0MII462sBHP5xQR+HUeChcdFEGKbwvlqfAvtj7hntx58J68PS/5Wt0c2qNkzXax0AR2fMkJdbosj/rO67zfaPGW1ZtJtkfFUEN/z5/jFhovtXxae40NpfgUkMH0x+IqzHkx1it1cP2uCCVkcLSqA2OB0/IZBNrbKTnBEnxeZBRax00NJofodl/y7NUvK8Go1VlFd836q0U2twNVMfHJBjN1GrqTXDYhgGScyL+d8DAUnA8pIe3RDuJVB5nHNpODV5+TXfEkzv4Zf9Fba1h4KDWaHODfr8/L1NgZiux9+dKyZDoKBLv8snFnU3/KhDayeZ3kzyiZK0aqIfDTBtWk4jv/jGwNMYXs/+GVTekJ1eQPX78nN9X66SB0WIFPgop1pOzxzegkIk+eGlx8Nn3XdbQW6CTPKGUFzU9ZRddcZj85ejF6KY1qs/LshuvciWST0fhh4FxR62T2kAPV/AUCXKblDksiBresXU8+eX8IlcBG2iuLRWQZI+wqp1TT88GD1Mmxa6Hr4ybb1X6Q7x05UXJE96lEnTUOKk1eliSbiI6e2QrIXt4C1XxnM63hSj2lIoHnbWaWz3k3iJiSLhcmRlPLUd/BdFJwSui4NjNCANtGCAiXPnmJLOEitLaauCk1mouehLyiPOrmQ30uPZfkDZ7MW8IvzHQsJ4K/R+FpDknCeqiVjxufy0mmRL+PYreqBmodVIrOHocfRFy2LpqBSY0jeMKzH19bknOibTQsi6tpzumg6xZ5nZIyhkBHtLQPZJCnQW0ZJ37ta/l0CKfJjoMQhs/aJxGv4qs87Pd1I51vll4Kp7FuQ2i2N3NWeebhZghYf/qcOncOe5CFs92FA7amSxTf/OWQ0YbNunQLCfF5qgNT0CPW5KsEwUMfB8DnvbHJZHALMnWlKRsOIkzPuveCwQXzuPVH37RGLZIcbytFwn7eksMsUekHY78C2e7+zYJPCfF/oJeONu9V/jLPGeLcLigF3EVj/DVeF7mu4wu/IvU28k7EWgE4/GFf5HKTdQV30X1n2CdsVtCur7z9/T2r4Z/F1Itt3TcCswkt0RNF7/rezr/iz8jbn5zB/aIGOjSW6GJ75ngr/6e0iT8V1FIgib8FdNo8ns6/4QLKE7gNohisxX/v6fzPxu9tAPaOvtnMOH8ydHfGaQQiB2FjZh8wud4wtR/Hv/38zEJBk/4M3/S90waTYmpd/jT0lYRLwTJHuN+0D2A9zO9obc/E/C9C11EtAf+gW/ofP2BBTfjDslv/AOvv2GCn+kN3/0HSsJk+Q2vv6Hz9Td8YERlohLjgT/TG8a9x59g7B3X313wxH3360AhyS9zHXje/SO4KPgek2T5DX/gGyZ9/QdeRzyPRXLb4tW1yvSyPK0y4aH3qu5UU+PFYcqGB9I1/1/z/zX/X/P/tYYCAA==;" parent="1" vertex="1">
                    <mxGeometry x="947" y="338" width="98" height="98" as="geometry"/>
                </mxCell>
                <mxCell id="63" value="" style="shape=image;verticalLabelPosition=bottom;labelBackgroundColor=#ffffff;verticalAlign=top;aspect=fixed;imageAspect=0;image=data:image/png,iVBORw0KGgoAAAANSUhEUgAAAgAAAAIACAMAAADDpiTIAAAC9FBMVEUAAAAAmAAAmQAAmAAAmQAAmQAAmQAAmgAAmQAAlwAAmQAAmQAAmgAAmQAAmQAAmQAAmQAAmQAAmAAAmQAAogAAmgAAmgAAmAAAmQAAmAAAmQAAkgAAmQAAmQAAmgAAmQAAmgAAmAAAqgAAmQAAmgAAmQAAmQAAmgAAlgAAmgAAmgAAmAAAmAAAmwAAgAAAmQAAmQAAmAAAmwAAmQAAmQAAmQAAmQAAmQAAmQAAkgAAlQAAmAAAmQAAmwAAmAAAmQAAmQAAmgAAgAAAmQAAmQAAmgAAmQAAjgAAmQAAmQAAmQAAmgAAqgAA/wAAmgAAmgAAmQAAmQAAmwAAlgAAmQAAlwAAmQAAnwAAmQAAmAAAmQAAmQAAmAAAmgAAmQAAmgAAmQAAmAAAmQAAmQAAmQAAmwAAmAAAmQAAmQAAmQAAmAAAmQAAmQAAlwAAmQAAmQAAlwAAlgAAmQAAmgAAmQAAmQAAmQAAmQAAmQAAmgAAmwAAmQAAmQAAmQAAnAAAmgAAlQAAmQAAngAAmQAAmwAAmAAAmgAAmAAAmQAAmQAAmAAAnAAAmQAAmQAAmAAAmQAAmQAAmQAAmAAAlAAAmQAAmQAAmQAAmQAAmQAAmQAAnQAAmAAAmQAAmQAAmQAAmgAAnwAAmQAAmgAAmAAAmQAAlQAAmAAAmQAAmAAAmQAAmQAAmQAAmQAAmAAAlwAAmQAAmQAAmQAAmAAAmQAAmQAAnAAAmQAAmgAAmQAAmQAAmQAAmgAAmwAAmQAAmQAAmgAAmAAAmgAAmQAAmwAAmQAAmQAAmAAAmQAAmAAAmQAAmQAAmQAAmQAAmgAAmAAAmAAAmQAAmQAAmAAAmQAAmgAAmgAAmQAAmAAAlwAAmQAAmgAAmgAAmAAAmQAAmgAAmQAAmQAAmAAAnQAAmQAAmgAAmQAAmQAAmQAAmgAAmQAAmQAAmgAAmQAAmgAAmAAAlwAAmQAAmAAAmAAAmAAAmQAAmgAAmQAAmgAAmQAAmgAAmQAAmQCf0VilAAAA+3RSTlMAJXu95Pn8v4IxClqr1/Ty1aVNBQtWplRGco4OS3aSloNhBoehqpNvIiZ0lZ9CBKz9xz3i0zx16+kHDIbuM6n60VsC7cU/yAlk9f6NAwGIYNz4LicZIKAI3i+JgFd52FH3RTfx2xwq5hSoPu8eG/OeOxHhsMrdrfajWCG0tuoSOh3wFb4XuESQUG45JGu7pKdfha4T++PladLGDcKKhOhTEHrJY9YYi85ey53UlJoWKNmZd5tsH8xlVbznNSmPwCuzMK847EE0jGhwI32yfllIcdBKf0xq4HwsLU5iQ2a1onhtGpHEw9rNl89nXQ+6XEDBUoFPc5yYR99Jt5TnVHoAABQMSURBVHja7d13nFbVncfxByOj0qUoig0UOzCKowygoyMJ+jBjiSAoSrCibEDBEhElaOwSJEhWRWNLNrFFAyaIxgi6xlBcosnGxLhEQyyxrtnqev9ZaXrLKb/fOXdmyOv1ef/7nHLv+X3nzlPPrVQAAAAAAAAAAAAAAAAAAAAAAAAAAAAAAAAAAAAAAAAAAAAAAAAAAAAAAAAAAAAAAAAAAAAAAAAAAAAAAAAAAAAAAAAAAAAAAAAAAAAAAAAAAAAAAAAAAAAAAAAAAAAAAAAAAAAAAAAAAAAAAAAAAAAAAAAAAAAAAAAAAAAAAAAAAAAAAAAAAAAAAAAAAAAAAAAAAAAAAADw96fdVl/aun3N1ttsu11ZI3bo2Klzl67dtu/eo63PzaZnrx26df3sCHfsYG3So/dOO++8U+8yT6HPLrvutvsefds5mvTrvede/ffeZ98SZ91v/wM6HbjtgIGWh/cdVJtsdtDBpczYa/DmAQ+pK/FEytPh0MM2H+GQfeqNTYYOG76xwfBhQ0ua9fAjGjZNeuRRjeYm9YcevanJiC+XNGvdVzaNeNiuI02PH3NsklId1RQ9Y/NxqQFrjtd0rT8hiXGi8BL21c7pXkeeZGiy3dZfNNi6lCtj06ia1KRfGm1qM6ZbqsnJY0uYtXHn1IjjTik2ODW/iIOiL3njM+NVT1N0PT2q/kkyoadklq9NzPbqekahyZlnpRucdWZ8JXr0z0569jnFNudOyjQ56Lz4Wc/PjNhlF8GKxyZgck12vH/4urjrlKmRAUguEMzSvX2+V5cLc02mTc82mD4tthL9LspPenG/fJvzLsk1OTI2AT0uzY34jdyZ1tUkRf0HBk222Yj8eJeJu14WW/8kmeGd5PKuxV5Dcit9QL7BAZGVqJ9ZnHSrfKMrCk0iE1Cof5JcOSvdoLFbYnJETAK+WRiuYba0azU+AFdd7ZvlW6Zu2ZBeMzH/+MRroiox8lrTofbJNrrO0CYqAYb6J8n16RY3WFbx/IgEDCsOd6OsZ+PF8fVPkvGeWW4y9qrenG4zp9hgTkQhKh2+bZw09/zYmMyIBBjrn0xMv6aZa1vFW8JfC4wojnaRrOe8MuqfHNbBPcsF5m7fSbeZX3x8fvCCVCo9tzHPeUSm1a0LjI2CE2Cuf5LsmGozzrqM2wcn4LvFwc4WdRz6j6UEILnNPc3t5l53pNucHXoORgvvtBxpdkzb5TgwAbb6J3elGk1MrOaGJuDE4lhXiTp+r5z6J2e7j7yLudfd6TZXhZ6DSZ8RtiOdmmk3x9YsKAHW+idzU61c63hZYAJMY0n6jflGSQFI7lEf32eqZZyDyb1fsR9ppuF91mYBCbDXP9lBGIDQ5wGhi9c/KcvFIQFIfG1C63+/40gzLb9vb/eDf9LWf759sB9KA5Cc3KicNmbxDi7hJeBmddrja7kA3Poj14Fmmn7Z0VB5DXD8/SfJA+IAJAeGJCBs8RofLK/+7lcdrRqAq490Hmim7cCjHS1V1wDX339Sk86SbyUfCkhA2OL1LbH+Se1JyuNrqQBc87D7QLOtH3E1VVwDnH//SX/JYsQkIGjxFk7yHorGj7eMAPjqnxvz0atcbcXXAOfff7LgMVUAkh83t0oA9iy1/s43blsvAFN+4jvOXIejnM+DjvS+yb2x/s6//2RX0WKkLNImIGTxLp8oOBKNPbaAAHzd/92GfJfFztaiBHjqn/tgTrKWjyv/C4Qs3qWSA9E4eqjq+FoiAIL6F8d0J0DwX8B9/U8uzX3UL1rMx3XXgIDFu7DEl4Cb/LStA/Az+9vsrjEjE6CsvywAyucB+sVrXFJq7TcYN1BzfPlj1J9DXrvvJgKGjlEJ0NZfGABdAvSL94Rt3qWS+Z409+3VpgE4aetEwtQ1IgHq+ksDoHomqF68hU9ZZl0imvXn5v8fD7ZlAB4TfrBp7BycAH39xQFIrpcnQL14d9kmPUM24UXm3rZvVbdCAJ6Wvqth7h6YgID6ywOQ/KLFArDviZYpnxFOuKzW2H15mwXg2cMSIcsAQQkIqb8iAPIEaBfvOduM/yyd0fxV0uqyNgrAds+LF9U2REACguqvCUCyc8sE4Je2+QaJV3xMe+MAD7VNAA53faYjHVOdgLD6qwKQjGqJADTZPi6rOVccgMruxhFONP72pqUD8MJwxZLah1EmILD+ugAkv2qBAKywTfaQaLKNRh9rHGJYGwTgwrMSBcdAqgSE1l8ZAFkCVCfax/YScKL850QVw+/bNhi+sNUDcHDXRMM1lCIBwfXXBiDzbaJSAjDKNpPw/80m08zX3ZWtHYDJyp+2OQcTJyC8/uoAZL5SXEIAVtleAk59VBWAymrjKIM1L31LCEBv7fda3cMJExBRf30AklNLDcCLtmn+RVf/ytC7jcOsadUA/Fr9obZnQFECYuofEIDkuBIDMMA2yZULfbPkvWQc52XDG5gtFoDf6L/U4BtSkICo+ocEIPltaQFout02h/DHhCljpxsHGtB6AfhX27+ziAD4ExBX/6AA+C7P8hP9nW2GV+orascYR7qi1QKwY0Oi5z8tTwJmx9Xfuhjub+j8vpwA3Gt9y3yevv6VgRNMI1X/0EoBWLMgcbsyLAC57VbyjnU+6q2/dTGatg9PgPhEf2Eb/pD4bYoiqYs1w1v/VwMD4LkGxNXf/tcQkQDpid7c3jb6H9uw9Lpz2Oy12sRtyKvhby6FJkBQf8flsGmuc/CtdGOa2s20jX2/+pvopVMW6xhf/e9eFvP2clgCJPV3/T9scu/Xc1/s4v2bdehftmHldeewyVpv/c9Vj5kRkgBR/Z1PiDwJOD1u8QYeYhv4T21Xd+U5bLLC953mp85Vj5mjT4Cs/u5nxE2vO6d4I2rx/mwbtlradrURNMXayVeLwTerxyzQJkBYf89Loqa9QhIgOtFp1peAO1S2AIpiHeqrxfRV6jENdAmQ1t/3mrjpZOc0i8MXbzfbmA03V7YA8mJ5CzN9X/WYYROF1N/7pkijMwHVG6Vj5ts8Zn3bbHfBUY+cNm3dvssOr7vuuu5LH1i7dp/F44877i+LXu/ff/m331zS7ZJLJg0vvit7ivP48scoLpa3LK9crg9VbALk9fcvhicBfw4MwBW2EY9dZz7Qny2e+9aS9aV1/oLa7knFOSuK9R3fvCfM1ofKZrzwXBX1FyxG4wWuuapzZGPmmpxhHXBP42Fe/lzsjwd30ZyzuFh3JR5vn6MeMzoBmvpLFqPxIdds1d8FBKD5Hdtww417Ms+L3j9sQrPqnGXFat458ZiwTjtmfAJU9RctRuPjrvmqK/QBmGEdzfi08o343w7fpjxnSbGad0s8Oo/WjhmfAF39RYtRaT7ANWPhGuAdr4f1h/OTTLu8dtRWu+jonspzFhSreW/frJ2zz2cEY/r5ngkq6y8LQKV5kWvO6hPKAPzUOtQKwyG2K2H/yGHac/avifu6uN4hua81+scU6PED55y259CRAag0/9U1a+0xuhO1Pql42xTfQYFFT2mYUnoAmg70TVrYz0Wwzv76z/fMertsHyFtACrNu7tmrX1NdaJjbN+dMn3hdFkJm4fMVZ+z7/Em750t3i3s6iZZ59j6qxMgWYyNCXA+46m+pzpR2zdBTK8Btg2peM7Pyw6AoP63ita69Pprd5WVLMamBDif89Qe7x4zO9Z5tp9Pfa8470H6eufdqT9n9+M9OvmmfNAQZdk6x9ZfvJucNgCV5utds9bO05zo7y2jdCmm96kk2g0lB6CftxDvzKoUCdc5tv66a4BkMWQJqHlfcaI9bTuoPFKYNeC71jmXNOnP2fV4/XLfjAd9IF3rlqi/6hogWYwvOLfz/DwBkvFsOwM3rMq3fEVTa6P8J1aSc3Y8Xv9i4jGiT8VEvs6R9ddcAySLkTLKNWtNR/mJNto2UZ+bb/lkEumq/I+MJOdsf3zkh74J37L8qkmxzpH1V1wDJIuR5vz0q+Yj+Yn+u2WM2vz3gfZRnbhB4SftknO2Pm65/VeKrf5RAVDWX34NkCxGhvPzr5oZ8hO1bO2VzMy1Wxf5JGDBmDIDMPRj33zbWO9dq1rnyPqLrwGSxcg6zjXrgl7iE93P9pWQ/O3LvR+5ud0SdM6Wx/u86ZvuSfs963TrHFl/aQIki5HjfCa4YKn4RG2vKd7MtZsl2nPVplq8XbbknM2Pf+B9U+JD4/3ZIwMQVH9hAiSLked8b65mjfREp9k2U+uea7hdzKdBL4ads/Fx1+2/NrrWUf/gAATWX/Y8QLIYBc77+zX8TTreSssIt+e3p/9NlyTYTeUF4NZ3Eo8/jdWudUvWX3QNkCxGkfMa0CAdr9/blhHez7d84e0k0LcCz9n0+Mu+yZa7f9SuX2dB/Ts7H/UnQLIYBv+hLYRxFNutUsf1y7esvy/wrrLXlRgAn4v6VZwC1tlb//k9xjsf9yZAVbCU3yoXxzyK5ZbKieG7xk0DVl4/d+Zbtw9WbcN3f+g5K09vQy089Q8KgLf+vm+J+RKgK1iK8qdK5kGetfyo0r1D0Mh1y+q6P7B2n/F/eX35m90muTbm+c/WC0CnoL0Y4uo/s95fCs8zweAAWD/QU41n+1rNav/8qUCMftWyO9/Dxt+Zt0gAjhjoPU79Ogv+/tcb72zlvgaEB8D/mzjBeOssz++VuwTuaJn1qOBzboH66wMg+vtfL+IaEBGAyv7xAbA+l9DtE2p5f/4Sc1VaIAC3COqvDoC4/jEJiAlA5b/iAzDSvLmbbqfgVZanEmvDz1lX/x0k9dcGQFH/iAREBUCRAOsQ8ywdNHuF/9A8xFOWt2VKD4Dw9rq6dVbVPzwBcQHw743gHc9203DF3QL6XWkeYqeIc9bU/7+FN9ZUrYuy/sEJiAyAZYNWzXjftHzt+1JxAI4yD/C87d6hJQdAfGNVzbqo6x+agNgAVFbKvrbvGMF2qjdJD+FOc3/rS8lyA7BIfGNdxboE7f8alIDoAPh3SPKNZ7tp2MfCA3jafABdp9k6lBqA/2mJ2+kF7v8bkoD4AFTekyTANcAoS5/esvktv1ixb2peZgD+2hI31Aze/zkgASUEoLJWkABXf9uWwS+LLq4jzfcKmTja2qPEAKjerpCuS8T+3/oElBEASQKc/W+0dDpNMvlr5r576woRFgDZTbSUAYja/12dgFICUHnCt1Ome7yB3cyd3pb81v1+Y9eGMfYepQVAcPscfQAi9//XJqCcAPj3ynV3/6Ol13v+mU8x97xAWYiQAHhvnRISgMj6qxNQUgC8CfB0t/zYYlIH78TmrStqXW8jlRQAbf1FAYiuvzYBZQWg8n13Ajy9T6kRrLhCf20h9AHw3TgnLADOrViE+7+4E7BkqPegggLguQb4ejt3IlNzbzdcSgDuq6gJ1sX9M6j5wv1/xjtHmdnsO6iwALjvmeDrfI3qm14+7v3GywiA+6Y5oQEY7fz6s3z/J/c1oFcLBaDS15EAb+fVZQagrqUDsH/I+vjX5ZFy6u+5BpzQ7Dmo0ABU1tj/k3v72r4YEOJjfSFUAaiurITwrkvTYY5Jdfu/Oa8BL7RUACrzasLH+6i8APxvywagqr+poSwAdaXV330N2MpzUOEBsN87y9+1+eKy6v+u5/35yAAYN8guJQCvlVd/5zVgUaqZ5d92beA5Vj6qCR7v4LICcI9nIstlqkYWgOqKSiBvAE4vsf6ua8CgVCvLL28Hh55kpZfxGvC8pKt36y2Zzr7PkAab+41Lt7Hej9GwObaU4Sn+1EwD22ciQfV3XAPSt2S409zkzpAJNzI+E5wg6bkqfj+o9R7wzWPZdObadJtPLINnt8TUMYz5SabBPaXW334N2DXVZld/Ey3T84C3RD0tX+7U+cS7WivMHeel2/Q3t6mZ5xvcwfB+94eZBo+a/zmF1t+agPSWCeuMv+Vt0G45nHFaMQGPiDre63oZJHWbf5qupn5DMj/tP95c//e9gzu8URzwjWyLZ8qtvyUBP8k0GWZqMixsus2WFhJwg6zjnPj6PzXWP43xpuVLM006HG2qf8eoZdmv8Iy7dr9siwEl19+cgBmZFmMfLrZ4WLCITvk7qQ/x/XB2E/MNwFUk79E3Xlvsl/8dgmFL+wWiL6g4FPY9H5RvcUTJ9Tcl4OPcq+Qphbs3nDAlbK6Ue7IJED9z7hhb//bXSKbpOSLfr3/+fuVNhf/YDUslQ7vcnPvf07Vwh7wO+U1oYutfTMD0ws8uZ9+RbXHH7Ng5P/N/6Zt7PSf+5nST+3YIfrfI5ll4fqZX9dTib7tm5TaEOfZr8asyI/NPoHZGscWt2acBj0fXv1J5KfPU8oSniy0Grk4ls+tq0e/cvJ7+4qtaD9XLu3WMDMBk6UR9U1uOPHyGqcUHmZ0MO/+hjFXplXqle2IvU4sev2r/eYvhwe85ZfT+4vVntdMsY5NZq9/d8L3O6rurZylHt2pe+uT654K1n9ZpekVeAg6RzzTyxhEb/h4bPuxou0DN+HwDns59hc9ifB77dPOQnz5mabJq0ZANDc7eo6xa1N+4ZEN5p3Zy/Nhm3eSOHSdHvformla3Zs05yj5xl4A5qrmurlsz48IPHA2atzv09bc+3OulZSUuSrvFlz3zzGWL2zmaND3bfd6v24lHlJgy4P2/nRn73L5VRF0CpvaJPwAAAAAAAAAAAAAAAAAAAAAAAAAAAAAAAAAAAAAAAAAAAAAAAAAAAAAAAAAAAAAAAAAAAAAAAAAAAAAAAAAAAAAAAAAAAAAAAAAAAAAAAAAAAAAAAAAAAAAAAAAAAAAAAAAAAAAAAAAAAAAAAAAAAAAAAAAAAAAAAAAAAAAAAAAAAAAAAAAAAAAAAAAAAAAAAAAAAAAAAAAAALYc/w9B2vy5e/yGwQAAAABJRU5ErkJggg==;" parent="1" vertex="1">
                    <mxGeometry x="1071" y="346" width="97" height="97" as="geometry"/>
                </mxCell>
                <mxCell id="72" value="" style="edgeStyle=none;html=1;labelBackgroundColor=#FFFFFF;fontColor=#000000;strokeColor=#000000;" parent="1" source="49" edge="1">
                    <mxGeometry relative="1" as="geometry">
                        <mxPoint x="872" y="368" as="targetPoint"/>
                    </mxGeometry>
                </mxCell>
                <mxCell id="76" style="edgeStyle=none;html=1;entryX=0;entryY=0.5;entryDx=0;entryDy=0;labelBackgroundColor=#FFFFFF;fontColor=#000000;strokeColor=#000000;" parent="1" source="73" target="56" edge="1">
                    <mxGeometry relative="1" as="geometry">
                        <Array as="points"/>
                    </mxGeometry>
                </mxCell>
                <mxCell id="82" value="" style="edgeStyle=none;html=1;labelBackgroundColor=#FFFFFF;fontColor=#000000;strokeColor=#000000;exitX=1;exitY=0.5;exitDx=0;exitDy=0;entryX=0;entryY=0.5;entryDx=0;entryDy=0;" parent="1" source="60" target="81" edge="1">
                    <mxGeometry relative="1" as="geometry">
                        <mxPoint x="1402" y="397" as="sourcePoint"/>
                        <mxPoint x="1462" y="397" as="targetPoint"/>
                    </mxGeometry>
                </mxCell>
            </root>
        </mxGraphModel>
    </diagram>
</mxfile>